HIERARCHY
ROOT Hips
{
	OFFSET 0.0000 0.0000 0.0000
	CHANNELS 6 Xposition Yposition Zposition Zrotation Xrotation Yrotation
	JOINT Spine1
	{
		OFFSET -0.0137 5.0038 -0.0537
		CHANNELS 3 Zrotation Xrotation Yrotation
		JOINT Spine2
		{
			OFFSET -0.0000 7.1253 -0.0298
			CHANNELS 3 Zrotation Xrotation Yrotation
			JOINT Chest
			{
				OFFSET -0.0000 7.5501 -0.8160
				CHANNELS 3 Zrotation Xrotation Yrotation
				JOINT Neck1
				{
					OFFSET -0.1817 26.3113 -0.5533
					CHANNELS 3 Zrotation Xrotation Yrotation
					JOINT Neck2
					{
						OFFSET -0.0000 7.7094 2.3026
						CHANNELS 3 Zrotation Xrotation Yrotation
						JOINT Head
						{
							OFFSET -0.0000 6.1289 1.9537
							CHANNELS 3 Zrotation Xrotation Yrotation
							JOINT Jaw
							{
								OFFSET 0.0026 0.4756 3.0949
								CHANNELS 3 Zrotation Xrotation Yrotation
								End Site
								{
									OFFSET 0.0 1.0 0.0
								}
							}
							JOINT LeftEye
							{
								OFFSET 3.2064 5.3802 7.5869
								CHANNELS 3 Zrotation Xrotation Yrotation
								End Site
								{
									OFFSET 0.0 1.0 0.0
								}
							}
							JOINT RightEye
							{
								OFFSET -3.2224 5.3619 7.5582
								CHANNELS 3 Zrotation Xrotation Yrotation
								End Site
								{
									OFFSET 0.0 1.0 0.0
								}
							}
						}
					}
				}
				JOINT LeftShoulder
				{
					OFFSET 1.6217 23.2372 5.1134
					CHANNELS 3 Zrotation Xrotation Yrotation
					JOINT LeftArm
					{
						OFFSET 14.9198 0.0000 -5.5023
						CHANNELS 3 Zrotation Xrotation Yrotation
						JOINT LeftForeArm
						{
							OFFSET 28.7393 0.0000 -0.0026
							CHANNELS 3 Zrotation Xrotation Yrotation
							JOINT LeftHand
							{
								OFFSET 27.0940 -0.0000 0.0026
								CHANNELS 3 Zrotation Xrotation Yrotation
								JOINT LeftHandThumbEnd
								{
									OFFSET 12.2686 -3.2202 4.8331
									CHANNELS 3 Zrotation Xrotation Yrotation
									End Site
									{
										OFFSET 0.0 1.0 0.0
									}
								}
								JOINT LeftHandMiddleEnd
								{
									OFFSET 19.0120 -0.3129 -0.0340
									CHANNELS 3 Zrotation Xrotation Yrotation
									End Site
									{
										OFFSET 0.0 1.0 0.0
									}
								}
							}
						}
					}
				}
				JOINT RightShoulder
				{
					OFFSET -1.3801 23.1803 5.2142
					CHANNELS 3 Zrotation Xrotation Yrotation
					JOINT RightArm
					{
						OFFSET -15.0372 0.0000 -5.5456
						CHANNELS 3 Zrotation Xrotation Yrotation
						JOINT RightForeArm
						{
							OFFSET -28.7366 0.0000 -0.0026
							CHANNELS 3 Zrotation Xrotation Yrotation
							JOINT RightHand
							{
								OFFSET -27.1336 -0.0000 0.0026
								CHANNELS 3 Zrotation Xrotation Yrotation
								JOINT RightHandThumbEnd
								{
									OFFSET -12.2642 -3.2115 4.8040
									CHANNELS 3 Zrotation Xrotation Yrotation
									End Site
									{
										OFFSET 0.0 1.0 0.0
									}
								}
								JOINT RightHandMiddleEnd
								{
									OFFSET -19.0006 -0.3066 -0.0316
									CHANNELS 3 Zrotation Xrotation Yrotation
									End Site
									{
										OFFSET 0.0 1.0 0.0
									}
								}
							}
						}
					}
				}
			}
		}
	}
	JOINT LeftLeg
	{
		OFFSET 10.0432 -8.4345 2.5957
		CHANNELS 3 Zrotation Xrotation Yrotation
		JOINT LeftShin
		{
			OFFSET -0.0000 -43.2218 -0.8029
			CHANNELS 3 Zrotation Xrotation Yrotation
			JOINT LeftFoot
			{
				OFFSET 0.0000 -42.1551 -3.4815
				CHANNELS 3 Zrotation Xrotation Yrotation
				JOINT LeftToeBase
				{
					OFFSET 0.0000 -5.0595 13.2315
					CHANNELS 3 Zrotation Xrotation Yrotation
					End Site
					{
						OFFSET 0.0 1.0 0.0
					}
				}
			}
		}
	}
	JOINT RightLeg
	{
		OFFSET -10.0473 -8.2953 2.6203
		CHANNELS 3 Zrotation Xrotation Yrotation
		JOINT RightShin
		{
			OFFSET 0.0000 -43.3622 -0.8056
			CHANNELS 3 Zrotation Xrotation Yrotation
			JOINT RightFoot
			{
				OFFSET 0.0000 -42.1174 -3.4784
				CHANNELS 3 Zrotation Xrotation Yrotation
				JOINT RightToeBase
				{
					OFFSET -0.0000 -5.0796 13.2842
					CHANNELS 3 Zrotation Xrotation Yrotation
					End Site
					{
						OFFSET 0.0 1.0 0.0
					}
				}
			}
		}
	}
}
MOTION
Frames: 9
Frame Time: 0.033333
-1.6280 88.0280 0.2240 2.3930 0.6626 0.2499 -1.0366 1.3350 -0.0762 -0.7946 -4.0404 -0.4454 -4.5400 18.9842 -3.3799 -8.9039 12.0489 5.7611 3.8709 -4.0708 14.8083 -9.9937 -4.8606 20.8936 0.1293 -0.1256 -0.3217 0.8695 -10.5662 -4.1687 -0.6302 -10.6124 3.5199 -9.4572 16.0248 -6.9094 -51.0776 -14.1641 15.6421 1.2058 -0.7309 -110.4746 10.1087 -12.9216 -12.9169 -15.0559 11.0975 15.5421 -59.8166 1.9457 2.3588 1.5837 20.2069 5.4202 59.2515 -5.2957 8.2523 -0.0339 0.4855 90.4332 -11.4409 16.0592 -44.1246 16.5985 6.9103 -15.5259 50.6783 -3.5818 -4.9918 16.0546 -36.7028 27.8308 -0.6099 42.6911 -1.1843 -15.8813 -4.4613 -10.2629 1.6302 -0.6937 -1.6168 -29.5556 -19.0011 -8.5344 0.4994 34.0839 1.4033 32.2977 -9.6192 -16.0482 -1.3989 -0.4709 1.2542
-1.4156 88.0601 0.2931 2.3970 0.6944 0.2457 -1.0737 1.2997 -0.1178 -0.7853 -4.0381 -0.3760 -4.6384 18.9283 -3.4593 -8.8524 11.8481 5.7290 3.9047 -4.0845 14.9431 -9.8679 -4.6678 20.8038 0.1152 -0.1314 -0.2979 0.8609 -10.5496 -4.1405 -0.6501 -10.5876 3.5433 -9.4744 16.0646 -6.9270 -51.0141 -14.2856 15.2128 1.2432 -0.7892 -110.5054 9.9943 -12.8942 -12.9676 -15.1624 11.0121 15.4934 -59.9798 1.8606 2.3586 1.5805 20.1654 5.3930 59.2207 -5.4435 7.8026 0.1073 0.5072 90.4882 -11.3599 16.0415 -44.0974 16.5889 6.9680 -15.5174 50.8335 -3.4980 -4.9096 15.9602 -36.7592 27.8984 -0.6376 42.9544 -1.1928 -15.8213 -4.7055 -10.4511 1.6352 -0.7478 -1.6515 -29.6187 -18.8443 -8.5632 0.4572 33.7216 1.3979 32.3342 -9.4282 -16.1880 -1.4089 -0.4312 1.2114
-1.1935 88.0532 0.3433 2.4047 0.7674 0.2610 -1.1192 1.2590 -0.1269 -0.7906 -4.0434 -0.3511 -4.7283 18.8693 -3.5093 -8.8162 11.6306 5.7297 3.9481 -4.1130 15.0400 -9.7893 -4.4399 20.8287 0.1099 -0.1323 -0.2885 0.8609 -10.5500 -4.1286 -0.6613 -10.5794 3.5521 -9.4745 16.0921 -6.9862 -50.9488 -14.3090 14.7659 1.2904 -0.8025 -110.5162 9.8225 -12.9187 -12.9437 -15.2024 10.9778 15.4682 -60.0363 1.8251 2.3656 1.6304 20.0978 5.3906 59.0906 -5.4648 7.4624 0.1840 0.4846 90.5445 -11.3342 15.8723 -43.9115 16.5552 6.9583 -15.4863 50.7976 -3.4803 -4.8908 15.7955 -36.8823 28.0156 -0.6334 43.2929 -1.1722 -15.6679 -5.0002 -10.6078 1.6400 -0.6955 -1.6830 -29.7387 -18.7461 -8.6213 0.4318 33.3639 1.3799 32.4516 -9.2193 -16.2039 -1.4136 -0.3508 1.1953
-0.9681 88.0393 0.4068 2.3786 0.8620 0.2850 -1.1678 1.2079 -0.1318 -0.8017 -4.0605 -0.3393 -4.7947 18.8438 -3.5140 -8.7712 11.3938 5.7525 3.9808 -4.1463 15.1380 -9.6911 -4.3335 20.8713 0.1064 -0.1311 -0.2787 0.8609 -10.5548 -4.1146 -0.6680 -10.5788 3.5567 -9.5064 16.0941 -7.0455 -50.7959 -14.3403 14.3029 1.2891 -0.7765 -110.4359 9.7021 -12.9264 -12.9879 -15.2377 10.9438 15.4447 -60.0414 1.8250 2.3589 1.7084 20.0653 5.3915 58.8980 -5.4779 7.2770 0.1405 0.5041 90.5748 -11.2954 15.8266 -43.7051 16.4850 6.9672 -15.4800 50.7522 -3.4565 -4.8512 15.6385 -37.0544 28.1265 -0.6146 43.6886 -1.1384 -15.5021 -5.3349 -10.7005 1.6390 -0.6175 -1.6935 -29.8500 -18.6276 -8.6733 0.4170 32.9550 1.3746 32.6267 -9.0174 -16.2522 -1.4130 -0.3248 1.1937
-0.7000 88.0028 0.4369 2.3203 0.9483 0.2619 -1.1977 1.1866 -0.1121 -0.8154 -4.0742 -0.3414 -4.8637 18.8367 -3.5074 -8.7134 11.1650 5.7514 4.0161 -4.1589 15.2571 -9.6100 -4.3341 20.9350 0.1023 -0.1292 -0.2644 0.8617 -10.5536 -4.0929 -0.6770 -10.5725 3.5651 -9.5185 16.0677 -7.1039 -50.6136 -14.3967 13.8762 1.3053 -0.7259 -110.3640 9.6556 -12.9256 -13.0476 -15.3002 10.9187 15.3982 -60.0291 1.8454 2.3307 1.7372 20.0561 5.3942 58.7280 -5.5290 7.2002 0.0530 0.4944 90.6207 -11.2484 15.8766 -43.4220 16.4176 6.9753 -15.4733 50.6770 -3.4436 -4.8436 15.4810 -37.2783 28.3409 -0.6127 44.1505 -1.1371 -15.3160 -5.6818 -10.7889 1.6342 -0.5388 -1.6935 -29.9409 -18.4806 -8.6658 0.4099 32.5286 1.3753 32.8326 -8.7758 -16.3374 -1.4120 -0.2968 1.2021
-0.4038 87.9627 0.5004 2.2416 1.0239 0.2232 -1.2311 1.1965 -0.0877 -0.8271 -4.0807 -0.3446 -4.9325 18.8428 -3.5004 -8.6634 10.9706 5.7374 4.0428 -4.1620 15.3841 -9.5625 -4.3491 21.0168 0.1000 -0.1234 -0.2554 0.8643 -10.5469 -4.0770 -0.6845 -10.5650 3.5680 -9.5154 16.0339 -7.1676 -50.4026 -14.4960 13.5235 1.3482 -0.6688 -110.3002 9.5901 -13.0034 -13.0697 -15.2988 10.8951 15.3473 -59.9798 1.8625 2.2762 1.7287 20.0563 5.4214 58.6368 -5.6299 7.1590 0.0009 0.4836 90.6700 -11.1682 15.8709 -43.1448 16.3917 6.9687 -15.4918 50.6315 -3.4729 -4.8295 15.3302 -37.5352 28.5658 -0.6062 44.6631 -1.1219 -15.1103 -6.0637 -10.8981 1.6277 -0.4541 -1.6875 -29.9957 -18.3539 -8.6428 0.4136 32.1290 1.3675 32.9909 -8.5498 -16.3858 -1.4102 -0.2897 1.2078
-0.1361 87.9447 0.5247 2.1658 1.1026 0.1565 -1.2832 1.2152 -0.0572 -0.8339 -4.0670 -0.3415 -5.0014 18.8137 -3.4799 -8.6608 10.8233 5.7331 4.0685 -4.1724 15.4788 -9.4982 -4.3755 21.0925 0.0999 -0.1180 -0.2518 0.8643 -10.5437 -4.0709 -0.6848 -10.5622 3.5698 -9.5190 15.9828 -7.2248 -50.1083 -14.5802 13.1923 1.4287 -0.5100 -110.1704 9.5373 -13.2112 -13.0795 -15.3329 10.8843 15.3141 -59.9864 1.8744 2.2352 1.7008 20.0631 5.4388 58.6215 -5.7218 7.1906 -0.0249 0.4805 90.6840 -11.1127 15.7863 -42.9027 16.3724 6.9636 -15.5002 50.6080 -3.4757 -4.8500 15.1814 -37.7713 28.8294 -0.6046 45.1320 -1.1133 -14.9193 -6.4024 -10.9902 1.6235 -0.4188 -1.6772 -30.0646 -18.2227 -8.6400 0.4227 31.6604 1.3788 33.1219 -8.2754 -16.3987 -1.4090 -0.3326 1.2165
0.1641 87.9211 0.5532 2.0921 1.1813 0.0885 -1.3379 1.2405 -0.0395 -0.8453 -4.0430 -0.3052 -5.0767 18.7799 -3.4767 -8.6731 10.7114 5.7569 4.0845 -4.1823 15.5231 -9.4518 -4.3976 21.1903 0.0988 -0.1089 -0.2504 0.8639 -10.5453 -4.0700 -0.6864 -10.5637 3.5715 -9.5131 15.9314 -7.2773 -49.7453 -14.6942 12.9249 1.5104 -0.4235 -109.9909 9.5165 -13.4450 -13.0825 -15.3430 10.8769 15.3086 -59.9716 1.8928 2.2285 1.6581 20.0695 5.4535 58.6735 -5.8074 7.2565 -0.0185 0.4882 90.6757 -11.0680 15.6649 -42.6906 16.3760 6.9392 -15.5049 50.5429 -3.5109 -4.8987 15.0364 -37.9880 29.0588 -0.6040 45.5453 -1.1009 -14.7462 -6.7023 -11.0073 1.6201 -0.3748 -1.6678 -30.1287 -18.0980 -8.6672 0.4336 31.1484 1.4091 33.2080 -7.9848 -16.3906 -1.4063 -0.4036 1.2174
0.4546 87.9234 0.5725 2.0258 1.2539 0.0108 -1.4021 1.2856 -0.0078 -0.8537 -4.0307 -0.2844 -5.1491 18.7529 -3.4719 -8.6994 10.6439 5.7730 4.0861 -4.1786 15.5802 -9.4343 -4.3916 21.2403 0.1002 -0.1015 -0.2536 0.8650 -10.5544 -4.0713 -0.6849 -10.5730 3.5659 -9.4966 15.8841 -7.3365 -49.3576 -14.8021 12.7341 1.6190 -0.3775 -109.7885 9.5776 -13.6680 -13.1007 -15.3443 10.8712 15.3199 -59.9843 1.9003 2.2286 1.6106 20.0674 5.4617 58.7443 -5.8855 7.4106 0.0001 0.4254 90.6006 -11.0784 15.5059 -42.4996 16.4080 6.9304 -15.5067 50.5564 -3.5325 -4.9250 14.8645 -38.1686 29.2851 -0.6042 45.9116 -1.0974 -14.5626 -6.9882 -10.9950 1.6153 -0.3355 -1.6497 -30.1605 -17.9759 -8.6939 0.4444 30.6424 1.4355 33.2689 -7.7399 -16.3485 -1.4035 -0.4637 1.2216
